# xmcd
#
# Track frame offsets:
#	150
#	11055
#	22959
#	47148
#	63668
#	75271
#	90378
#	104021
#	115337
#	129443
#	143468
#	158365
#	171384
#	184536
#	198087
#	212019
#	224093
#
# Disc length: 3153 seconds
#
# Revision: 1
# Processed by: cddbd v1.5.1PL0 Copyright (c) Steve Scherf et al.
# Submitted via: audiograbber 1.83.01
#
DISCID=e00c4f11
DTITLE=EDUARDO BRITO - EL CANTOR NACIONAL DE REPUBLICADOMINICANA
DYEAR=2005
DGENRE=Dance
TTITLE0=Eduardo Brito - Mi vida es cantar
TTITLE1=Eduardo Brito - El dinero
TTITLE2=Eduardo Brito - Rosaura
TTITLE3=Eduardo Brito - Te quiero dijiste
TTITLE4=Eduardo Brito - Martha
TTITLE5=Eduardo Brito - Siboney
TTITLE6=Eduardo Brito - Lamento esclavo
TTITLE7=Eduardo Brito - Lamento gitano
TTITLE8=Eduardo Brito - Capullito de alheli
TTITLE9=Eduardo Brito - Como me besabas tu
TTITLE10=Eduardo Brito - Cuando cantan las aves
TTITLE11=Eduardo Brito - Mi aldea
TTITLE12=Eduardo Brito - Musa campera
TTITLE13=Eduardo Brito - Nubes de ensueño
TTITLE14=Eduardo Brito - Horas lejanas
TTITLE15=Eduardo Brito - Rumba loca
TTITLE16=Eduardo Brito - Tamales calientes
EXTD=FUNDACION INTERNACIONAL JOSE GUILLERMO CARRILLO. BIBLIOTECA DE VOCES DEL S
EXTD=IGLO XX\nCARACAS, VENEZUELA
EXTT0=
EXTT1=
EXTT2=
EXTT3=
EXTT4=
EXTT5=
EXTT6=
EXTT7=
EXTT8=
EXTT9=
EXTT10=
EXTT11=
EXTT12=
EXTT13=
EXTT14=
EXTT15=
EXTT16=
PLAYORDER=
